<?xml version="1.0" encoding="utf-8"?>
<!-- Generator: Adobe Illustrator 24.0.2, SVG Export Plug-In . SVG Version: 6.00 Build 0)  -->
<svg version="1.1" id="Capa_1" xmlns="http://www.w3.org/2000/svg" xmlns:xlink="http://www.w3.org/1999/xlink" x="0px" y="0px"
	 viewBox="0 0 2392 1987" style="enable-background:new 0 0 2392 1987;" xml:space="preserve">
<style type="text/css">
	.Sombra_x0020_paralela{fill:none;}
	.Resplandor_x0020_externo_x0020_5_x0020_pt_x002E_{fill:none;}
	.Neón_x0020_azul{fill:none;stroke:#8AACDA;stroke-width:7;stroke-linecap:round;stroke-linejoin:round;}
	.Resalte_x0020_cromado{fill:url(#SVGID_1_);stroke:#FFFFFF;stroke-width:0.3629;stroke-miterlimit:1;}
	.A_x0020_todo_x0020_ritmo_GS{fill:#FFDD00;}
	.Alyssa_GS{fill:#A6D0E4;}
	.st0{fill:#780001;}
	.st1{clip-path:url(#SVGID_3_);}
	.st2{fill:#FFFFFF;}
	.st3{fill:#050505;}
	.st4{opacity:0.5;fill:url(#SVGID_4_);}
	.st5{fill:url(#SVGID_5_);}
	.st6{opacity:0.5;fill:url(#SVGID_6_);}
	.st7{fill:url(#SVGID_7_);}
	.st8{fill:none;}
	.st9{fill:#294467;}
	.st10{fill:#800000;stroke:#FFFFFF;stroke-width:12;stroke-miterlimit:10;}
	.st11{fill:#050505;stroke:#FFFFFF;stroke-width:12;stroke-miterlimit:10;}
	.st12{fill:#008000;stroke:#FFFFFF;stroke-width:12;stroke-miterlimit:10;}
	.st13{fill:#800080;stroke:#FFFFFF;stroke-width:12;stroke-miterlimit:10;}
	.st14{fill:#008080;stroke:#FFFFFF;stroke-width:12;stroke-miterlimit:10;}
	.st15{fill:#00FF00;stroke:#FFFFFF;stroke-width:12;stroke-miterlimit:10;}
	.st16{fill:#FFFF00;stroke:#FFFFFF;stroke-width:12;stroke-miterlimit:10;}
	.st17{fill:#00FFFF;stroke:#FFFFFF;stroke-width:12;stroke-miterlimit:10;}
	.st18{fill:#F25F0F;stroke:#FFFFFF;stroke-width:12;stroke-miterlimit:10;}
	.st19{fill:#808000;stroke:#FFFFFF;stroke-width:12;stroke-miterlimit:10;}
	.st20{fill:#000080;stroke:#FFFFFF;stroke-width:12;stroke-miterlimit:10;}
	.st21{fill:#C0C0C0;stroke:#FFFFFF;stroke-width:12;stroke-miterlimit:10;}
	.st22{fill:#FF0000;stroke:#FFFFFF;stroke-width:12;stroke-miterlimit:10;}
	.st23{fill:#0000FF;stroke:#FFFFFF;stroke-width:12;stroke-miterlimit:10;}
	.st24{fill:#FF00FF;stroke:#FFFFFF;stroke-width:12;stroke-miterlimit:10;}
	.st25{fill:#01B0F1;stroke:#FFFFFF;stroke-width:12;stroke-miterlimit:10;}
	.st26{fill:#ADFF29;stroke:#FFFFFF;stroke-width:12;stroke-miterlimit:10;}
	.st27{fill-rule:evenodd;clip-rule:evenodd;fill:#C82A2F;}
	.st28{fill:#373435;}
</style>
<linearGradient id="SVGID_1_" gradientUnits="userSpaceOnUse" x1="-1801" y1="5183" x2="-1801" y2="5182">
	<stop  offset="0" style="stop-color:#656565"/>
	<stop  offset="0.618" style="stop-color:#1B1B1B"/>
	<stop  offset="0.6292" style="stop-color:#545454"/>
	<stop  offset="0.9831" style="stop-color:#3E3E3E"/>
</linearGradient>
<g>
	<g>
		<path class="st0" d="M1957.8,680.1c30.4-122.6-12.2-245.2-91.3-303.8c-97.4-90.6-249.7-101.3-353.2-79.9
			c-34.8-248.8-274-261.2-328.8-261.2c-127.9,0-280.1,90.6-304.5,261.2c-158.3-26.6-298.4,42.6-334.9,85.3
			C441.5,482.9,435.5,546.9,441.5,621.5c-219.2,0-426.3,182.5-426.3,387.8v34.8c0,207.3,208.5,376.9,395.8,376.9h166.6
			c0-41.5,0-85.1,0-127.1c0-58.2-0.5-197.4-0.5-240.3c0-59.4,62.1-118.9,132.4-118.9c55,0,171.9,0,226.9,0
			c62.1,0,124.2,65,124.3,118.9c0,44.1,0.7,180.4,0.7,240.3c0,42.1,0,85.6,0,127.1h199.2c0,0,0,0.5,0-0.4c-24.5,0-23.6-0.2-45.9,0.4
			c-62.8-3.3-124.3-83.7-83.7-145.9c0-10.8,226.9-270.1,226.9-270.1c78.3-91.8,197.2-94.5,289,0c51.9,53.5,215,259.1,224.2,270.1
			c35.1,48.6,10.8,145.9-81,145.9c-22.8-0.6-37.5-0.4-62-0.4c0,1-0.2,0.4-0.1,0.4h260.3c187.3,0,374.5-169.6,374.5-376.9v-34.8
			C2341.4,840,2170.9,701.5,1957.8,680.1z"/>
		<path class="st2" d="M1728,1435h-13.9l0-27.9l0.1,0v-0.4h13.9c5.7,0,10.9,0,15.8,0c16.1,0,28.8-0.1,46.4,0.4
			c45-0.1,65-26.1,73-41.6c13.6-26.6,12.3-60.2-3.1-81.9c-2-2.4-7.5-9.3-16.3-20.3c-44.9-56-164.1-204.7-206.9-248.7
			c-42.7-43.9-93.6-67.2-143.5-65.6c-46.9,1.5-90.1,24-125,64.9c-80.2,91.6-208.8,241-223.6,264.3v1l-2.3,3.5
			c-18.6,28.5-9,57-1.7,71.5c15,29.5,45.3,51.1,74,52.9c16.3-0.4,20.1-0.4,31.1-0.4c3.7,0,8.3,0,14.6,0h13.9l0,28.3l-13.9,0
			c-0.7,0-1.4-0.1-2.1-0.2h-211l0-141c0-33.1-0.2-90.4-0.4-140.9c-0.1-41.5-0.3-79.6-0.3-99.3c0-44.9-54.6-105-110.4-105H709.5
			c-60.9,0-118.5,51-118.5,105c0,19.7,0.1,59.9,0.2,103.1c0.1,49.6,0.3,105.8,0.3,137.2l0,141H411.1c-94.6,0-198.3-42.7-277.5-114.3
			C48.4,1243.4,1.4,1145.3,1.4,1044.1v-34.8c0-205.7,200.8-393.4,425.3-401.4c-4-68.4,6.3-135.8,108.3-235.7
			c23-26.5,71.8-54.1,127.6-72.3c47.5-15.4,120.8-30.8,205.9-19.2c31.3-168.5,184.2-259.3,315.9-259.3c36.5,0,108.1,5,177.9,38.7
			c42,20.2,76.8,47.8,103.5,82.1c29.6,38,49.4,84.4,58.9,138c103.7-17.8,252.1-5.6,350.6,85.5c83.3,62.1,123,184.6,99.4,302.4
			c212.4,27,380.2,167.9,401.8,339.5l0.1,1.7v34.8c0,102-43,200.1-121.2,276.1c-74.9,72.9-172.3,114.6-267.2,114.6h-248.4l0,0.1
			L1728,1435z M1866.1,1407.1h122.2c170.2,0,360.6-155.2,360.6-363v-33.9c-21-162.6-185.9-295.5-392.4-316.2l-16-1.6l3.9-15.6
			c27.9-112.1-7.6-231.1-86.1-289.3l-1.2-1c-95.3-88.7-243.2-96.6-340.9-76.5l-14.5,3l-2.1-14.7
			c-32.3-231.2-249.3-249.2-315.1-249.2c-123.7,0-267.6,87.3-290.7,249.2l-2,14.1l-14-2.4c-147.2-24.8-285.8,38.3-322.1,80.6
			l-0.8,0.9c-101.3,99.1-105,159.8-99.4,228.8l1.2,15h-15.1c-215.8,0-412.4,178.2-412.4,373.9v34.8c0,204.4,205.3,363,381.9,363
			h152.7l0-113.2c0-31.4-0.2-87.6-0.3-137.1c-0.1-43.3-0.2-83.4-0.2-103.2c0-32.6,16.2-66.1,44.3-92c28.3-25.9,65.4-40.8,101.9-40.8
			h226.9c67.1,0,138.1,68.2,138.2,132.7c0,19.7,0.1,57.8,0.3,99.3c0.2,50.6,0.4,107.9,0.4,141l0,113.2h72.9
			c-13-11-24.1-24.7-32-40.3c-17-33.3-16-69.1,2.5-98.3c5.1-10.4,26.5-38,115.2-141.6c56.1-65.5,113-130.5,113.5-131.1
			c39.5-46.3,91.1-72.8,145.2-74.5c57.7-1.9,116.1,24.4,164.3,74c43.6,44.9,163.5,194.4,208.6,250.7c8.6,10.7,14.8,18.5,16.3,20.2
			l0.6,0.8c21.9,30.3,24.1,74.9,5.6,111.2C1882.2,1389.3,1874.9,1399,1866.1,1407.1z"/>
	</g>
	<g>
		<path class="st3" d="M985.7,1251.7c0-58.8,0-114.8,0-158.1c0-52.8-27.2-79.9-80.5-80c-55-0.2-110-0.1-165,0
			c-57.6,0.1-84.1,26.8-84.1,84.7c0,42.1,0,96.3,0,153.4c0,41.2,0,84,0,124.7c0,115.4,0,214.9,0,219.2c-24.5,0-46.8,0.5-69.1-0.1
			c-62.8,3.2-60.7,50.3-37.6,80.1c66,77.4,131.4,155.2,197.8,232.2c42.7,49.5,105.1,49.6,147.7,0.2
			c66.8-77.5,132.6-155.8,198.9-233.7c26-26.2,26-77.7-37.8-78.7c-22.8,0.6-45.7,0.1-70.2,0.1c0-4.6,0-103.8,0-219.2
			C985.7,1335.7,985.7,1293,985.7,1251.7z"/>
		<path class="st2" d="M821.1,1958.8C821.1,1958.8,821.1,1958.8,821.1,1958.8c-31.1,0-61.2-14.9-84.5-42
			c-42.6-49.5-85.6-100.1-127.1-149c-23.5-27.7-47.1-55.5-70.7-83.2l-0.4-0.5c-17.5-22.5-22.5-49.1-13.2-69.5
			c6.4-13.9,22.2-31,61-33l0.5,0l0.5,0c15.1,0.4,30.3,0.3,46.4,0.2c2.8,0,5.6,0,8.4,0l0-205.4l0-124.7c0-57.1,0-111.3,0-153.4
			c0-65.4,33-98.6,98-98.6l16.5,0c48.7-0.1,99-0.1,148.5,0c60.8,0.2,94.3,33.5,94.4,93.9c0,43.3,0,99.3,0,158.1l0,124.7l0,205.4
			c2.8,0,5.6,0,8.4,0c16.4,0.1,32,0.2,47.5-0.2l0.3,0l0.3,0c43.5,0.7,58.8,22.2,64,35c8.7,21.3,2.2,48.2-16.1,67
			c-22.4,26.3-44.7,52.7-67.1,79.1c-43,50.7-87.4,103.1-131.6,154.4C882.1,1943.9,852.2,1958.8,821.1,1958.8z M560.2,1666.8
			c23.6,27.6,47,55.3,70.5,83c41.5,48.9,84.4,99.5,127,148.9c18,20.9,40.5,32.4,63.5,32.4c0,0,0,0,0,0c22.8,0,45.3-11.4,63.2-32.2
			c44.1-51.1,88.5-103.5,131.4-154.2c22.5-26.5,44.9-53,67.4-79.5l0.7-0.8c10.6-10.7,15-26.4,10.5-37.4c-4.5-11-18.1-17.3-38.4-17.7
			c-15.9,0.4-31.6,0.3-48.1,0.2c-7.3,0-14.6-0.1-22.2-0.1h-13.9l0-357.8v0c0-58.8,0-114.8,0-158.1c0-45-21.2-66-66.7-66.2
			c-49.5-0.2-99.8-0.1-148.4,0l-16.6,0c-49.9,0.1-70.2,20.6-70.3,70.8c0,42.1,0,96.3,0,153.4l0,124.7l0,233.1H656
			c-7.6,0-14.9,0-22.1,0.1c-16.1,0.1-31.3,0.2-46.7-0.2c-13.7,0.8-31,4.3-36.7,16.8C545.6,1636.7,549.5,1653,560.2,1666.8z"/>
	</g>
	<g>
		<path class="st3" d="M1736.1,1362.9c63.8-1.1,63.8-52.5,37.8-78.7c-9.2-10.8-18.4-21.7-27.6-32.5
			c-57-67.1-113.8-134.5-171.3-201.2c-42.7-49.5-105-49.3-147.7,0.2c-57.5,66.7-114.3,133.9-171.3,201
			c-8.8,10.4-17.7,20.8-26.5,31.2c-23.1,29.7-25.2,76.9,37.6,80.1c22.3-0.6,44.5-0.1,69.1-0.1c0,0.9,0,5.6,0,13.6
			c0,64.8,0,342.5,0,483.7c0,58,26.5,84.7,84.1,84.7c55,0.1,110,0.1,165,0c53.3-0.2,80.5-27.2,80.5-80c0.1-142.6,0-423.2,0-488.4
			c0-7.9,0-12.7,0-13.6C1690.4,1362.8,1713.3,1362.3,1736.1,1362.9z"/>
		<path class="st2" d="M1513.1,1958.8c-25.6,0-51.2,0-76.3-0.1l-16.5,0c-65-0.1-98-33.3-98-98.6c0-141.1,0-418.3,0-483.5
			c-2.8,0-5.6,0-8.4,0c-16.1-0.1-31.3-0.2-46.4,0.2l-0.5,0l-0.5,0c-38.9-2-54.6-19-61-33c-9.3-20.4-4.3-47,13.2-69.5l0.4-0.5
			c6.2-7.3,12.5-14.6,18.7-22l7.8-9.2c14.3-16.8,28.6-33.6,42.8-50.4c42-49.5,85.4-100.6,128.5-150.6c23.4-27.1,53.4-42,84.5-42
			c31.1,0,61,14.9,84.2,41.8c44.7,51.8,89.6,104.8,133.1,156.1c12.8,15,25.5,30.1,38.3,45.1l6.9,8.1c6.8,8,13.6,16,20.4,24
			c18.3,18.8,24.8,45.7,16.1,67c-5.2,12.8-20.4,34.3-64,35l-0.3,0l-0.3,0c-15.6-0.4-31.1-0.3-47.5-0.2c-2.8,0-5.6,0-8.4,0
			c0,65.7,0,345.8,0,488.2c0,60.4-33.5,93.7-94.4,93.9C1561.4,1958.8,1537.2,1958.8,1513.1,1958.8z M1293.4,1348.7
			c6.8,0,13.6,0,20.6,0.1c7.2,0,14.6,0.1,22.1,0.1h13.9l0,27.5c0,64.8,0,342.5,0,483.7c0,50.3,20.4,70.8,70.3,70.8l16.5,0
			c48.7,0.1,99,0.1,148.4,0c45.5-0.1,66.6-21.2,66.7-66.2c0.1-142.6,0-423.2,0-488.4l0-27.5h13.9c7.5,0,14.9,0,22.2-0.1
			c16.6-0.1,32.2-0.2,48.1,0.2c20.3-0.4,33.9-6.7,38.4-17.7c4.5-11,0-26.7-10.5-37.4l-0.7-0.8c-6.9-8.1-13.8-16.3-20.8-24.4
			l-6.9-8.1c-12.8-15-25.5-30.1-38.3-45.2c-43.4-51.2-88.3-104.2-132.9-155.9c-17.9-20.8-40.4-32.2-63.2-32.2
			c-22.9,0-45.5,11.5-63.5,32.4c-43,49.9-86.4,101-128.4,150.5c-14.3,16.8-28.6,33.6-42.8,50.5l-7.8,9.2
			c-6.2,7.3-12.3,14.5-18.5,21.7c-10.6,13.8-14.5,30.1-9.7,40.7c5.7,12.5,23,16,36.7,16.8C1276,1348.8,1284.7,1348.7,1293.4,1348.7z
			"/>
	</g>
	<g>
		<path class="st2" d="M728.6,601c20.5,0,36.1,4.8,46.8,14.5c10.7,9.7,16,24.2,16,43.8c0,10.8-1.3,20.6-4,29.3
			c-2.7,8.7-6.9,16-12.8,22c-5.8,5.9-13.3,10.5-22.4,13.7c-9.1,3.2-20,4.8-32.6,4.8H563.8l33.3-54.7h126.6c6.2,0,10.7-1.2,13.5-3.7
			c2.8-2.4,4.3-6.4,4.3-11.9c0-5.5-1.4-9.4-4.3-11.8c-2.8-2.3-7.3-3.5-13.5-3.5h-91c-10.8,0-20.2-1.5-28-4.5
			c-7.8-3-14.3-7.1-19.5-12.4c-5.2-5.3-9-11.7-11.5-19.3c-2.5-7.5-3.8-15.9-3.8-25c0-10,1.4-19,4.1-27.2c2.8-8.2,7-15.1,12.8-20.8
			c5.8-5.7,13.2-10.2,22.3-13.4c9.1-3.2,20-4.8,32.6-4.8h145.3l-33.3,55.4H637.6c-6,0-10.5,1.1-13.4,3.2c-2.9,2.1-4.4,5.9-4.4,11.5
			c0,5.5,1.5,9.4,4.4,11.6c2.9,2.2,7.4,3.3,13.4,3.3H728.6z"/>
		<path class="st2" d="M925,595.3c3.7,8.3,6.9,15.5,9.6,21.8c2.8,6.3,5.2,11.8,7.3,16.7c2.1,4.9,3.9,9.3,5.5,13.4
			c1.6,4,3.1,8,4.6,11.8c1.3-3.8,2.8-7.7,4.4-11.6c1.6-3.9,3.4-8.4,5.5-13.4c2.1-5,4.5-10.6,7.3-16.7c2.8-6.2,6-13.4,9.6-21.6
			l26.8-60.5c3-6.8,6.8-12.3,11.4-16.4c4.6-4.1,10.3-6.2,17.1-6.2c6.5,0,12.4,2.4,17.6,7.2c5.3,4.8,9,12.1,11.4,22.1l42.3,187.1
			h-51.5l-15.8-74.2c-2.7-12.1-4.9-22.7-6.8-31.8c-1.8-9.1-3.4-18-4.8-26.7c-2.8,7.4-6,15.6-9.5,24.7c-3.5,9-8.1,20.4-13.8,34.2
			l-22.5,53.5c-2.2,5.3-4.4,9.5-6.6,12.6c-2.3,3.1-4.5,5.5-6.9,7.2c-2.3,1.7-4.8,2.8-7.5,3.3c-2.7,0.5-5.6,0.8-8.8,0.8
			c-3.2,0-6.1-0.3-8.8-0.8c-2.7-0.5-5.2-1.6-7.5-3.3c-2.3-1.7-4.6-4.1-6.9-7.2c-2.3-3.1-4.5-7.3-6.6-12.6l-22.5-53.8
			c-3-7.2-5.7-13.7-8-19.4c-2.3-5.7-4.5-10.9-6.4-15.4c-1.9-4.6-3.6-8.8-5-12.6c-1.4-3.8-2.8-7.5-4.1-11.1
			c-1.3,8.5-2.9,17.3-4.8,26.6c-1.8,9.2-4,19.9-6.5,32l-15.8,74.2h-50.8l43.3-187.1c2.3-10,6.2-17.3,11.5-22.1
			c5.3-4.8,11.3-7.2,17.8-7.2c6.7,0,12.3,2,16.9,6c4.6,4,8.4,9.5,11.4,16.6L925,595.3z"/>
		<path class="st2" d="M1190.1,728.9l31.3-54.7h42c5,0,10.2,0,15.6,0c5.4,0,10.1,0.2,14.1,0.6c-2.3-3.8-5-8.6-8.1-14.5
			c-3.1-5.8-6-11.3-8.9-16.4l-30-56.3l-78.5,141.3h-61.3l107.3-192.6c3.5-6.2,7.9-11.7,13.3-16.5c5.3-4.9,12.1-7.3,20.3-7.3
			c7.8,0,14.4,2.3,19.6,6.8c5.3,4.6,9.7,10.2,13.4,17l104.5,192.6H1190.1z"/>
		<path class="st2" d="M1635.5,728.9h-69.3l-37.3-56.3h-79.5v56.3h-51.8V620.1h145.6c8,0,14.8-2.1,20.3-6.4
			c5.5-4.2,8.3-10.1,8.3-17.5c0-8.3-2.5-14.5-7.5-18.6c-5-4.1-12-6.2-21-6.2h-145.6l33.8-55.4H1539c9.5,0,19.3,1.1,29.5,3.3
			c10.2,2.2,19.4,6.2,27.8,11.9c8.3,5.7,15.2,13.5,20.6,23.2c5.4,9.8,8.1,22.3,8.1,37.6c0,8.3-1,16.1-3,23.6
			c-2,7.4-4.9,14.1-8.6,20.1c-3.8,5.9-8.3,11-13.8,15.1c-5.4,4.1-11.5,7.1-18.4,8.8c2.8,2.8,6,6.3,9.5,10.5
			c3.5,4.2,8.2,10.1,14,17.5L1635.5,728.9z"/>
		<path class="st2" d="M1856.9,516l-33.5,55.4h-59.8v157.5h-51.8V571.4h-78.5l33.5-55.4H1856.9z"/>
	</g>
</g>
</svg>
