<svg xmlns="http://www.w3.org/2000/svg" viewBox="0 0 245 200"><title>SMART</title><path d="M196.44,69c2.92-11.73-1.16-23.45-8.73-29.06-9.32-8.66-23.88-9.68-33.78-7.64-3.33-23.8-26.21-25-31.45-25-12.23,0-26.79,8.67-29.11,25-15.15-2.55-28.54,4.08-32,8.15-9.9,9.69-10.48,15.8-9.9,22.94-21,0-40.76,17.46-40.76,37.09v3.32c0,19.83,19.94,36,37.85,36H64.45V127.73c0-5.56,0-18.88,0-23,0-5.68,5.95-11.37,12.66-11.37h21.7c5.95,0,11.89,6.22,11.89,11.37,0,4.22.06,17.25.06,23v12.16h19s0,.05,0,0c-2.34,0-2.26,0-4.39,0-6-.31-11.88-8-8-13.95,0-1,21.7-25.84,21.7-25.84,7.49-8.78,18.86-9,27.64,0,5,5.11,20.56,24.78,21.44,25.84,3.36,4.65,1,13.95-7.75,13.95-2.18-.06-3.58,0-5.93,0,0,.09,0,0,0,0h24.9c17.91,0,35.81-16.22,35.81-36v-3.32C233.13,84.33,216.83,71.08,196.44,69Z" style="fill:#780001"/><path d="M174.46,141.23h-1.33v-2.67h0v0H176c1.54,0,2.76,0,4.44,0a7.38,7.38,0,0,0,7-4,7.84,7.84,0,0,0-.3-7.83l-1.56-1.94c-4.29-5.35-15.7-19.58-19.78-23.78s-9-6.43-13.72-6.28c-4.49.15-8.62,2.3-12,6.21-7.67,8.76-20,23.05-21.39,25.28v.09l-.21.33a6.7,6.7,0,0,0-.16,6.84,9.19,9.19,0,0,0,7.07,5.06c1.56,0,1.92,0,3,0h2.72v2.71H109.38V127.73c0-3.17,0-8.64,0-13.48,0-4,0-7.61,0-9.5,0-4.29-5.22-10-10.56-10H77.06c-5.82,0-11.33,4.88-11.33,10,0,1.89,0,5.73,0,9.86,0,4.74,0,10.12,0,13.12v13.49H48.52c-9,0-19-4.09-26.53-10.94-8.16-7.37-12.65-16.76-12.65-26.44v-3.32C9.34,80.85,28.55,62.89,50,62.13c-.38-6.55.6-13,10.36-22.55,2.19-2.53,6.86-5.18,12.2-6.91a44.61,44.61,0,0,1,19.7-1.84C95.26,14.71,109.88,6,122.48,6a40.35,40.35,0,0,1,17,3.7,27.53,27.53,0,0,1,9.9,7.85A29.57,29.57,0,0,1,155,30.78c9.92-1.7,24.11-.53,33.53,8.18,8,5.94,11.76,17.65,9.5,28.92,20.32,2.59,36.36,16.06,38.43,32.47v3.49a36.82,36.82,0,0,1-11.59,26.41c-7.16,7-16.48,11-25.55,11h-24.9Zm13.21-2.67h11.69c16.28,0,34.48-14.85,34.48-34.72V100.6c-2-15.55-17.77-28.27-37.53-30.24l-1.52-.15.37-1.49c2.66-10.73-.73-22.1-8.24-27.67L186.8,41c-9.11-8.48-23.26-9.25-32.6-7.32l-1.39.28-.19-1.4c-3.1-22.11-23.85-23.83-30.14-23.83-11.82,0-25.59,8.35-27.8,23.84l-.19,1.34-1.35-.22c-14.07-2.37-27.33,3.66-30.8,7.71l-.08.08c-9.68,9.48-10,15.28-9.5,21.88l.12,1.44H51.43C30.79,64.76,12,81.8,12,100.52v3.32c0,19.55,19.63,34.72,36.52,34.72H63.13V127.73c0-3,0-8.37,0-13.11,0-4.14,0-8,0-9.87A12.18,12.18,0,0,1,67.32,96a14.62,14.62,0,0,1,9.74-3.9h21.7c6.42,0,13.21,6.52,13.22,12.69,0,1.88,0,5.53,0,9.49,0,4.84,0,10.32,0,13.49v10.83h7a12.65,12.65,0,0,1-3.06-3.85,9.32,9.32,0,0,1,.24-9.41c.49-1,2.53-3.63,11-13.53,5.37-6.27,10.8-12.48,10.86-12.54A19.1,19.1,0,0,1,152,92.1c5.52-.18,11.1,2.33,15.71,7.08,4.18,4.29,15.64,18.59,20,24,.83,1,1.42,1.77,1.56,1.93l.06.08a10.42,10.42,0,0,1,.53,10.63A9.63,9.63,0,0,1,187.67,138.56Z" style="fill:#fff"/><path d="M103.48,123.69c0-5.62,0-11,0-15.11,0-5.06-2.6-7.64-7.7-7.66-5.26,0-10.52,0-15.78,0-5.51,0-8,2.56-8,8.1v47.57c-2.35,0-4.48,0-6.61,0-6,.3-5.8,4.81-3.59,7.65,6.31,7.4,12.56,14.84,18.91,22.21,4.08,4.73,10,4.74,14.13,0,6.39-7.4,12.68-14.9,19-22.35,2.48-2.51,2.48-7.42-3.62-7.53-2.18.06-4.37,0-6.71,0v-32.9Z" style="fill:#050505"/><path d="M87.74,191.32h0a10.68,10.68,0,0,1-8.08-4c-4.08-4.73-8.19-9.57-12.16-14.25l-6.76-8,0,0c-1.67-2.15-2.16-4.7-1.26-6.65.61-1.33,2.12-3,5.83-3.15h.11c1.44,0,2.9,0,4.43,0h.81V109c0-6.25,3.15-9.42,9.37-9.43h1.58c4.66,0,9.47,0,14.21,0,5.81,0,9,3.21,9,9,0,4.14,0,9.5,0,15.12v31.57h.8c1.57,0,3.06,0,4.55,0h.06c4.16.07,5.62,2.12,6.11,3.34a6.12,6.12,0,0,1-1.54,6.41l-6.41,7.56c-4.11,4.85-8.36,9.86-12.59,14.76A10.67,10.67,0,0,1,87.74,191.32Zm-25-27.92q3.38,4,6.74,7.93c4,4.68,8.08,9.52,12.15,14.24a8.1,8.1,0,0,0,6.07,3.1h0a8.1,8.1,0,0,0,6-3.08c4.22-4.89,8.46-9.9,12.57-14.75,2.15-2.53,4.29-5.07,6.45-7.6l.07-.07a3.53,3.53,0,0,0,1-3.57c-.43-1.06-1.73-1.66-3.67-1.7-1.52,0-3,0-4.6,0h-3.45V123.69h0V108.58c0-4.31-2-6.32-6.38-6.33-4.73,0-9.54,0-14.19,0H80c-4.77,0-6.71,2-6.71,6.77,0,4,0,9.21,0,14.67v34.23H69.83c-1.54,0-3,0-4.47,0-1.31.08-3,.42-3.51,1.61A4.11,4.11,0,0,0,62.78,163.4Z" style="fill:#fff"/><path d="M175.24,134.33c6.1-.1,6.1-5,3.62-7.52l-2.64-3.12c-5.45-6.42-10.88-12.86-16.38-19.23-4.08-4.73-10.05-4.72-14.13,0-5.5,6.38-10.93,12.81-16.38,19.22l-2.53,3c-2.21,2.84-2.42,7.35,3.59,7.65,2.13-.05,4.26,0,6.61,0v1.3c0,6.2,0,32.76,0,46.27,0,5.54,2.53,8.1,8,8.1,5.26,0,10.52,0,15.78,0,5.1,0,7.7-2.6,7.7-7.66,0-13.63,0-40.47,0-46.71v-1.3C170.87,134.32,173.06,134.28,175.24,134.33Z" style="fill:#050505"/><path d="M153.92,191.33H145c-6.22,0-9.37-3.18-9.37-9.43V135.65h-.81c-1.53,0-3,0-4.43,0h-.11c-3.71-.19-5.22-1.82-5.83-3.15-.9-1.95-.41-4.5,1.26-6.65l0,0,1.78-2.1.75-.88c1.37-1.6,2.73-3.21,4.1-4.82,4-4.73,8.16-9.62,12.29-14.4a10.12,10.12,0,0,1,16.13,0c4.28,5,8.57,10,12.73,14.93l3.66,4.32.66.77,2,2.3a6.12,6.12,0,0,1,1.54,6.41c-.49,1.22-1.95,3.27-6.11,3.34h-.06c-1.49,0-3,0-4.55,0h-.8c0,6.28,0,33.07,0,46.69,0,5.77-3.21,9-9,9Zm-21-58.35h5.41v2.63c0,6.2,0,32.76,0,46.27,0,4.81,1.94,6.77,6.71,6.77h1.59c4.65,0,9.46,0,14.19,0,4.35,0,6.37-2,6.38-6.33V133h3.45c1.58,0,3.08,0,4.6,0,1.94,0,3.24-.64,3.67-1.7a3.53,3.53,0,0,0-1-3.57l-.07-.07-2-2.34-.65-.78q-1.85-2.14-3.67-4.31c-4.15-4.9-8.44-10-12.71-14.92a7.48,7.48,0,0,0-12.11,0c-4.12,4.77-8.27,9.66-12.28,14.39l-4.1,4.83-.74.87-1.77,2.08a4.11,4.11,0,0,0-.93,3.89c.55,1.19,2.2,1.53,3.51,1.61C131.24,133,132.07,133,132.91,133Z" style="fill:#fff"/><path d="M78.89,61.47a6.47,6.47,0,0,1,4.47,1.38A5.38,5.38,0,0,1,84.89,67a9.39,9.39,0,0,1-.38,2.8,5,5,0,0,1-1.22,2.1,5.53,5.53,0,0,1-2.14,1.31A9.61,9.61,0,0,1,78,73.7H63.13l3.18-5.23h12.1a2,2,0,0,0,1.29-.35A1.44,1.44,0,0,0,80.11,67a1.39,1.39,0,0,0-.41-1.13,2,2,0,0,0-1.29-.33H69.7A7.68,7.68,0,0,1,67,65.09a4.93,4.93,0,0,1-1.86-1.19,4.62,4.62,0,0,1-1.1-1.84,7.54,7.54,0,0,1-.36-2.39,8.2,8.2,0,0,1,.39-2.6,5.05,5.05,0,0,1,1.22-2,5.49,5.49,0,0,1,2.13-1.28,9.33,9.33,0,0,1,3.12-.46h13.9l-3.18,5.3H70.18a2.22,2.22,0,0,0-1.28.3,1.27,1.27,0,0,0-.42,1.1,1.33,1.33,0,0,0,.42,1.11,2.13,2.13,0,0,0,1.28.32Z" style="fill:#fff"/><path d="M97.67,60.92c.35.79.65,1.49.92,2.08l.69,1.6c.2.47.38.9.53,1.28s.3.76.44,1.13q.19-.56.42-1.11c.15-.38.33-.8.52-1.28s.44-1,.7-1.6l.92-2.07,2.56-5.78a4.62,4.62,0,0,1,1.09-1.57A2.33,2.33,0,0,1,108.1,53a2.41,2.41,0,0,1,1.68.68,4,4,0,0,1,1.09,2.12l4,17.89H110l-1.51-7.09c-.26-1.15-.47-2.17-.65-3s-.32-1.73-.45-2.56l-.91,2.36c-.34.86-.77,1.95-1.32,3.27L103,71.76a6.54,6.54,0,0,1-.63,1.2,3.31,3.31,0,0,1-.66.68A1.67,1.67,0,0,1,101,74a4.4,4.4,0,0,1-1.67,0,1.67,1.67,0,0,1-.72-.32,3.31,3.31,0,0,1-.66-.68,6,6,0,0,1-.63-1.2l-2.16-5.15c-.28-.69-.54-1.31-.76-1.86l-.61-1.47q-.27-.66-.48-1.2c-.13-.37-.27-.72-.39-1.07-.13.81-.28,1.66-.46,2.54s-.38,1.91-.62,3.06L90.32,73.7H85.47l4.14-17.89a4,4,0,0,1,1.1-2.12A2.45,2.45,0,0,1,92.4,53a2.39,2.39,0,0,1,1.62.57,4.43,4.43,0,0,1,1.09,1.59Z" style="fill:#fff"/><path d="M123,73.7l3-5.23h5.52a13.39,13.39,0,0,1,1.35.06c-.23-.37-.49-.83-.78-1.39s-.58-1.08-.85-1.56l-2.87-5.39L120.87,73.7H115l10.26-18.41a6.44,6.44,0,0,1,1.27-1.58,3,3,0,0,1,3.81-.05,5.65,5.65,0,0,1,1.28,1.63l10,18.41Z" style="fill:#fff"/><path d="M165.62,73.7H159l-3.57-5.38h-7.6V73.7h-5V63.29H156.8a3.08,3.08,0,0,0,1.93-.6,2,2,0,0,0,.79-1.68,2.17,2.17,0,0,0-.71-1.78,3,3,0,0,0-2-.59H142.88l3.22-5.3h10.29a13.33,13.33,0,0,1,2.82.32,7.35,7.35,0,0,1,2.66,1.14,6.44,6.44,0,0,1,2,2.22,7.36,7.36,0,0,1,.78,3.6,8.67,8.67,0,0,1-.29,2.25,6.91,6.91,0,0,1-.82,1.92,5.51,5.51,0,0,1-1.32,1.44,4.63,4.63,0,0,1-1.76.84,12.16,12.16,0,0,1,.91,1c.34.41.78,1,1.34,1.68Z" style="fill:#fff"/><path d="M186.79,53.34l-3.2,5.3h-5.72V73.7h-5V58.64h-7.51l3.2-5.3Z" style="fill:#fff"/></svg>